{
  "title": "Kick 2014 Hindi DVDSCR-Rip Xvid Mp3-TeamTNT ",
  "uid": 10630074,
  "size": 735893334,
  "categoryP": "video",
  "categoryS": "movies",
  "magnet": "?xt=urn:btih:64d9e4d4742cabe57609154410ab2ab9af8fedbe&amp;dn=Kick+2014+Hindi+DVDSCR-Rip+Xvid+Mp3-TeamTNT+&amp;tr=udp%3A%2F%2Ftracker.openbittorrent.com%3A80&amp;tr=udp%3A%2F%2Fopen.demonii.com%3A1337&amp;tr=udp%3A%2F%2Ftracker.coppersurfer.tk%3A6969&amp;tr=udp%3A%2F%2Fexodus.desync.com%3A6969",
  "seeders": 86,
  "leechers": 19,
  "uploader": "HeroMaster",
  "files": -1,
  "time": 1406302692,
  "description": "::::::::::: TEAMTNT EXCLUSIVE PRESENTS :::::::::::\n\n &lt;a href=&quot;\nhttp://i.imgur.com/elUCrxR.png&quot; rel=&quot;nofollow&quot; target=&quot;_NEW&quot;&gt;\nhttp://i.imgur.com/elUCrxR.png&lt;/a&gt;\n\n\n:::: Kick 2014 Hindi DVDSCR-Rip Xvid Mp3-TeamTNT ::::\n\n\n::Information::\n\n\nKICK\n(2014)\n[1CD] DVDSCR Rip Xvid Mp3\nTEAMTNT Exclusive \n\n\nMovie:............KICK\nSource: ..........DVDSCR @ TeamTNT\nYear:.............2014\n\n\n::More Information::\n\n\nGeneral\nComplete name : D:KICK.avi\nFormat : AVI\nFormat/Info : Audio Video Interleave\nFile size : 695 MiB\nDuration : 2h 25mn\nOverall bit rate : 666 Kbps\n\nVideo\nID : 0\nFormat : MPEG-4 Visual\nFormat profile : Advanced Simple@L5\nFormat settings, BVOP : 2\nFormat settings, QPel : No\nFormat settings, GMC : No warppoints\nFormat settings, Matrix : Default (H.263)\nCodec ID : XVID\nCodec ID/Hint : XviD\nDuration : 2h 25mn\nBit rate : 576 Kbps\nWidth : 656 pixels\nHeight : 272 pixels\nDisplay aspect ratio : 2.40:1\nFrame rate : 23.976 fps\nColor space : YUV\nChroma subsampling : 4:2:0\nBit depth : 8 bits\nScan type : Progressive\nCompression mode : Lossy\nBits/(Pixel*Frame) : 0.135\nStream size : 602 MiB (87%)\nWriting library : XviD 1.2.1 (UTC 2008-12-04)\n\nAudio\nID : 1\nFormat : MPEG Audio\nFormat version : Version 1\nFormat profile : Layer 3\nMode : Joint stereo\nMode extension : MS Stereo\nCodec ID : 55\nCodec ID/Hint : MP3\nDuration : 2h 25mn\nSource duration : 2h 25mn\nBit rate mode : Constant\nBit rate : 80.0 Kbps\nChannel(s) : 2 channels\nSampling rate : 32.0 KHz\nCompression mode : Lossy\nStream size : 83.5 MiB (12%)\nAlignment : Aligned on interleaves\nInterleave, duration : 42 ms (1.00 video frame)\nWriting library : LAME3.99r\nEncoding settings : -m j -V 4 -q 2 -lowpass 13.5 -b 80\n\n\n::IMDB::\n\n &lt;a href=&quot;\nhttp://www.imdb.com/title/tt2372222/&quot; rel=&quot;nofollow&quot; target=&quot;_NEW&quot;&gt;\nhttp://www.imdb.com/title/tt2372222/&lt;/a&gt;\n\n\n::Greetz and Respect::\n\n\nALL CREDIT Goes to broken_heart for Encoding and Studio for Distribution.\n\n\n::Notes::\n\n\nHere is the king of the Devil, Salman khan Rise up for his kick release.\n\n\n::Poster::\n\n &lt;a href=&quot;\nhttp://i.imgur.com/3TksIYY.jpg&quot; rel=&quot;nofollow&quot; target=&quot;_NEW&quot;&gt;\nhttp://i.imgur.com/3TksIYY.jpg&lt;/a&gt;\n\n\n::Screenshots::\n\n &lt;a href=&quot;\nhttp://i.imgur.com/RoXV1qN.jpg&quot; rel=&quot;nofollow&quot; target=&quot;_NEW&quot;&gt;\nhttp://i.imgur.com/RoXV1qN.jpg&lt;/a&gt;\n\n &lt;a href=&quot;\nhttp://i.imgur.com/MC4KmG0.jpg&quot; rel=&quot;nofollow&quot; target=&quot;_NEW&quot;&gt;\nhttp://i.imgur.com/MC4KmG0.jpg&lt;/a&gt;\n\n &lt;a href=&quot;\nhttp://i.imgur.com/pGjvRiE.jpg&quot; rel=&quot;nofollow&quot; target=&quot;_NEW&quot;&gt;\nhttp://i.imgur.com/pGjvRiE.jpg&lt;/a&gt;\n\n\nSEED AND ENJOY!",
  "parsed": {
    "xt": "urn:btih:64d9e4d4742cabe57609154410ab2ab9af8fedbe",
    "dn": "Kick 2014 Hindi DVDSCR-Rip Xvid Mp3-TeamTNT ",
    "tr": [
      "udp://exodus.desync.com:6969",
      "udp://open.demonii.com:1337",
      "udp://tracker.coppersurfer.tk:6969",
      "udp://tracker.openbittorrent.com:80"
    ],
    "infoHash": "64d9e4d4742cabe57609154410ab2ab9af8fedbe",
    "infoHashBuffer": {
      "type": "Buffer",
      "data": [
        100,
        217,
        228,
        212,
        116,
        44,
        171,
        229,
        118,
        9,
        21,
        68,
        16,
        171,
        42,
        185,
        175,
        143,
        237,
        190
      ]
    },
    "name": "Kick 2014 Hindi DVDSCR-Rip Xvid Mp3-TeamTNT ",
    "announce": [
      "udp://exodus.desync.com:6969",
      "udp://open.demonii.com:1337",
      "udp://tracker.coppersurfer.tk:6969",
      "udp://tracker.openbittorrent.com:80"
    ],
    "urlList": []
  },
  "previous": 22,
  "peers": 8,
  "last_updated": "2016-12-27T02:17:20.329Z"
}